PathFileType	4	(X/Y/Z)	c:/Users/goper/Files/vsCode/490R/osim_files/C12/C12_Fast_02.trc
DataRate	CameraRate	NumFrames	NumMarkers	Units                	OrigDataRate	OrigDataStartFrame	OrigNumFrames
120.00	120.00	7	36	mm	120.0	571	1140
                Frame#	Time	LPSIS			LASIS			LTH1			LTH2			LTH3			LTH4			LLFE			LMFE			LSH1			LSH2			LSH3			LSH4			LLMAL			LMMAL			LCAL			LMTP5			LTOE			LMTP1			RPSIS			RASIS			RTH1			RTH2			RTH3			RTH4			RLFE			RMFE			RSH1			RSH2			RSH3			RSH4			RLMAL			RMMAL			RCAL			RMTP1			RTOE			RMTP5		
		X1	Y1	Z1	X2	Y2	Z2	X3	Y3	Z3	X4	Y4	Z4	X5	Y5	Z5	X6	Y6	Z6	X7	Y7	Z7	X8	Y8	Z8	X9	Y9	Z9	X10	Y10	Z10	X11	Y11	Z11	X12	Y12	Z12	X13	Y13	Z13	X14	Y14	Z14	X15	Y15	Z15	X16	Y16	Z16	X17	Y17	Z17	X18	Y18	Z18	X19	Y19	Z19	X20	Y20	Z20	X21	Y21	Z21	X22	Y22	Z22	X23	Y23	Z23	X24	Y24	Z24	X25	Y25	Z25	X26	Y26	Z26	X27	Y27	Z27	X28	Y28	Z28	X29	Y29	Z29	X30	Y30	Z30	X31	Y31	Z31	X32	Y32	Z32	X33	Y33	Z33	X34	Y34	Z34	X35	Y35	Z35	X36	Y36	Z36

571	4.75000	-163.07755	1079.04211	328.54279	-337.50589	1036.94922	374.05655	-339.15790	762.80103	446.02191	-363.14700	725.14972	445.28690	-393.53500	792.72375	447.97540	-411.18451	752.24115	447.92328	-460.37970	574.20319	408.46750	-473.31625	570.82507	283.65384	-386.98190	487.83200	418.83249	-378.63217	440.93390	425.18298	-447.26889	470.55496	420.37546	-430.11108	426.78207	422.83417	-339.16486	143.85899	375.73773	-364.74353	148.72501	298.51056	-282.28415	133.46785	323.76456	-450.15958	49.71690	409.86691	-515.14801	74.54907	352.27496	-485.95471	52.07394	306.24594	-150.12460	1083.51489	216.38991	-323.56299	1044.45032	124.43927	-200.24879	760.07587	87.51995	-201.62914	715.01111	96.49804	-262.88232	752.51166	87.13555	-254.05466	706.91168	95.83121	-183.58321	537.54535	143.43434	-193.23289	542.86584	276.53836	-111.39198	444.63608	130.97276	-110.05300	401.00845	126.38183	-173.78560	433.88080	134.39360	-161.76459	392.88193	128.39148	-107.12540	110.23755	184.39023	-126.81699	123.39293	264.59229	-34.25579	79.68347	224.60103	-246.72849	46.65322	264.46927	-290.12515	63.14342	232.34961	-252.30734	38.26982	157.41116
572	4.75833	-175.05215	1076.92786	329.80096	-349.65393	1035.30896	373.64319	-353.27771	761.12292	444.86301	-377.51712	723.60309	443.50229	-407.65814	791.18860	446.77045	-425.42145	750.75543	446.12167	-474.18942	572.87299	406.07748	-485.70386	569.82129	281.33347	-405.57611	482.16162	416.70844	-400.21448	434.75363	422.15356	-464.95523	469.55252	418.16278	-450.71829	424.30139	421.41217	-376.53867	136.72194	375.93561	-401.09854	142.43346	298.59302	-319.93939	121.81794	324.54074	-493.41174	49.89696	410.03729	-556.11023	78.01073	351.80194	-528.14893	53.72396	306.18378	-162.05128	1081.69214	217.63348	-334.80557	1043.07935	124.06233	-207.24184	759.85266	87.67967	-207.50006	714.96228	96.25900	-269.76111	751.21912	87.36156	-260.23154	705.44037	95.98498	-186.43224	537.72290	143.66713	-196.69269	542.70538	276.68079	-113.87151	445.26556	131.20685	-112.23512	401.68848	126.60085	-176.12799	434.23886	134.62675	-163.89966	393.27487	128.67601	-107.60075	110.89967	184.82520	-127.48751	123.67862	264.97900	-34.63688	80.53058	225.05157	-246.74760	46.40722	264.63315	-290.34485	62.80908	232.37128	-252.37129	38.19175	157.43837
573	4.76667	-187.01973	1074.54431	331.07996	-361.84995	1033.32617	373.37772	-367.10028	758.98865	443.42630	-391.37338	721.41138	441.41852	-421.41913	789.02423	445.49405	-439.16553	748.47839	444.18311	-487.20111	570.85638	403.66672	-498.22372	567.13483	278.93338	-422.59888	476.77869	415.69128	-419.85889	428.54895	421.22549	-482.52905	467.56470	416.61148	-471.04749	421.56528	420.08957	-413.97797	129.97986	376.31351	-437.81717	136.48897	298.65219	-357.94000	111.09190	325.56595	-536.27570	51.24554	409.89563	-596.47174	82.69958	351.09033	-569.72858	56.27630	305.66116	-173.68964	1079.78284	218.96384	-347.06458	1041.71301	123.28683	-214.29594	759.44202	87.82067	-214.21147	714.38226	96.75616	-276.94281	749.81830	87.63187	-266.36163	704.57410	96.29582	-189.92082	537.89417	143.91231	-200.55742	542.21667	276.74893	-116.55325	445.79214	131.44804	-114.64199	402.28656	126.81961	-178.95708	434.12613	134.88763	-166.24059	393.48880	128.97975	-108.07505	111.52800	185.26756	-128.10049	123.93115	265.39075	-35.01993	81.31622	225.58821	-246.89771	46.22379	264.68924	-290.47214	62.22171	232.74002	-252.39262	38.09943	157.47295
574	4.77500	-199.05864	1072.01074	332.25449	-374.64764	1031.30261	373.30154	-380.53537	756.32098	441.81622	-404.41699	718.73315	439.18082	-434.78204	786.11377	444.01935	-452.33844	745.66785	442.06946	-499.56616	568.27393	401.17065	-509.02118	564.78937	276.93149	-438.73474	471.17264	414.95435	-439.69409	422.79434	420.48560	-500.41495	465.53439	414.76581	-491.24600	418.87827	418.65738	-451.66135	124.18919	376.68195	-473.35739	132.16713	298.88632	-396.16318	101.38113	326.67383	-579.04852	53.78853	409.03555	-637.09625	88.50616	348.97552	-610.77386	60.21311	304.71613	-185.36467	1077.63977	220.15321	-358.28482	1039.73535	122.87877	-221.62067	758.76697	88.16904	-220.45171	714.06598	97.07214	-283.87708	748.40167	87.63475	-272.55325	703.28528	96.41683	-193.78314	537.68896	144.09387	-204.65714	541.87573	276.99661	-119.55443	446.22894	131.63945	-117.01816	402.97244	127.29671	-182.49854	432.96289	134.40218	-168.89095	393.58298	129.22833	-108.54251	112.12440	185.85724	-128.47949	124.48809	265.92499	-35.40490	82.09184	226.02318	-247.05711	46.16122	264.65036	-290.94479	62.08125	232.50247	-252.50902	37.99967	157.44374
575	4.78333	-211.28839	1069.18298	333.35626	-386.64413	1028.89746	373.07227	-393.19443	753.25262	440.10455	-416.87946	715.61267	436.84808	-447.64105	782.65393	442.49402	-465.19260	742.25452	439.75482	-511.40613	565.17944	398.75613	-519.71149	561.96460	274.05405	-455.35178	465.26855	414.17477	-459.60568	416.99771	419.77573	-517.45660	463.18719	412.82489	-511.22906	416.20047	417.08499	-489.30273	119.47160	376.93811	-509.23779	128.62535	298.98965	-434.45563	92.93966	328.00702	-621.17065	58.21053	408.13632	-676.37158	95.58619	346.66132	-651.12915	65.57619	303.30139	-197.25154	1075.15613	221.41869	-369.53992	1037.40247	122.66598	-228.76418	758.23779	88.38232	-227.10442	713.50836	97.33759	-290.77798	746.96490	87.57193	-279.01703	701.98969	96.50841	-198.10611	537.48846	144.31174	-209.34402	541.32318	277.07590	-122.76157	446.74518	131.86620	-120.14687	403.70160	128.15555	-185.58246	432.92407	134.64903	-171.72493	393.68225	129.47307	-109.01989	112.69186	186.23016	-129.25124	124.85351	266.12405	-35.85353	82.92160	226.43102	-247.22687	46.13960	264.56534	-291.26501	61.90757	232.38062	-252.50243	37.91542	157.42444
576	4.79167	-223.40829	1066.17712	334.38620	-399.24506	1026.48071	373.14731	-405.54401	749.67908	438.32837	-428.83868	711.85315	434.52252	-460.51437	779.15118	440.90097	-477.21921	738.26819	437.34219	-522.75342	561.48474	396.42911	-529.83264	558.00146	271.41431	-473.58093	459.27301	412.90054	-479.45392	411.36389	418.93787	-534.17346	460.99197	410.74515	-530.97443	413.75537	415.43948	-526.69714	116.08492	377.28845	-544.92499	125.71624	298.39899	-472.66208	85.67857	329.55832	-662.67963	63.89846	406.69550	-714.00110	104.54283	344.49704	-690.36615	72.36193	301.42178	-208.99875	1072.52405	222.55605	-381.17328	1034.98694	122.48778	-235.96907	757.67090	88.63332	-233.76245	712.98499	97.51825	-297.74667	745.67719	87.41621	-285.56570	700.46527	96.32590	-202.79131	537.33563	144.55937	-214.20815	540.84583	277.31784	-126.33709	447.26721	132.19423	-123.17616	404.23071	128.51270	-189.06656	432.95169	134.79471	-174.70717	393.48203	129.84003	-109.52720	113.32166	186.62769	-131.50748	126.73172	266.62646	-36.23714	83.76820	226.80939	-247.12637	46.26167	264.74063	-291.50726	61.72750	232.31865	-252.50688	37.88183	157.39841
577	4.80000	-235.72182	1062.86462	335.39258	-411.94235	1023.65955	373.27332	-416.90018	745.58685	436.64798	-439.99658	707.46881	432.37097	-472.35297	774.51025	439.17563	-488.64447	733.43384	435.23264	-533.81268	557.25549	394.19815	-539.23004	553.37921	268.91891	-490.55707	453.45184	411.92599	-499.28192	406.13974	418.05688	-550.86652	458.80426	408.58578	-549.37292	412.81992	414.83633	-563.42688	113.96874	377.50595	-580.35620	123.68240	297.98843	-510.93872	79.36892	331.08972	-702.96411	71.12560	405.12927	-750.42084	114.76693	341.94489	-728.38873	79.75005	299.35291	-220.81525	1069.49500	223.58633	-393.19739	1032.49268	122.54236	-243.23166	757.10876	89.02311	-240.78807	712.41034	97.73803	-305.18619	744.42084	87.25048	-292.42447	699.38959	96.28628	-207.92464	536.96259	144.66171	-219.43042	540.26038	277.48477	-130.30377	447.68805	132.55057	-126.60159	404.73224	128.99077	-192.85686	432.98392	134.93639	-178.27522	393.57428	129.99561	-110.02280	113.96233	186.96414	-132.09560	127.04091	266.95706	-36.63961	84.57212	227.25682	-247.15164	46.12171	264.76157	-291.65298	61.42874	232.38260	-252.49570	37.85044	157.38780
